<svg aria-hidden="true" style="position: absolute; width: 0; height: 0; overflow: hidden;" version="1.1" xmlns="http://www.w3.org/2000/svg" xmlns:xlink="http://www.w3.org/1999/xlink">
<defs>
<symbol id="cross_icon" viewBox="0 0 32 32">
<path d="M7.067 24.933c0.267 0.267 0.533 0.4 0.933 0.4s0.667-0.133 0.933-0.4l7.067-7.067 7.067 7.067c0.267 0.267 0.667 0.4 0.933 0.4s0.667-0.133 0.933-0.4c0.533-0.533 0.533-1.333 0-1.867l-7.067-7.067 7.067-7.067c0.533-0.533 0.533-1.333 0-1.867s-1.333-0.533-1.867 0l-7.067 7.067-7.067-7.067c-0.533-0.533-1.333-0.533-1.867 0s-0.533 1.333 0 1.867l7.067 7.067-7.067 7.067c-0.533 0.533-0.533 1.333 0 1.867z"></path>
</symbol>
<symbol id="done_icon" viewBox="0 0 32 32">
<path d="M11.24 26.667v0c-0.379-0.005-0.72-0.168-0.959-0.426l-0.001-0.001-8.587-9.333c-0.219-0.238-0.353-0.557-0.353-0.907 0-0.74 0.6-1.34 1.34-1.34 0.39 0 0.741 0.167 0.986 0.432l0.001 0.001 7.613 8.293 17.093-17.653c0.244-0.25 0.584-0.406 0.96-0.406 0.739 0 1.339 0.599 1.339 1.339 0 0.363-0.145 0.692-0.379 0.934l-18.093 18.666c-0.242 0.247-0.579 0.4-0.952 0.4-0.003 0-0.005 0-0.008-0h0z"></path>
</symbol>
<symbol id="edit_icon" viewBox="0 0 32 32">
<path d="M19.68 5.92l6.4 6.4-19.68 19.68h-6.4v-6.4l19.68-19.68zM21.92 3.68l3.68-3.68 6.4 6.4-3.68 3.68-6.4-6.4z"></path>
</symbol>
<symbol id="plus_icon" viewBox="0 0 32 32">
<path d="M28 14h-10v-10c0-1.104-0.896-2-2-2s-2 0.896-2 2v10h-10c-1.104 0-2 0.896-2 2s0.896 2 2 2h10v10c0 1.104 0.896 2 2 2s2-0.896 2-2v-10h10c1.104 0 2-0.896 2-2s-0.896-2-2-2z"></path>
</symbol>
<symbol id="search_icon" viewBox="0 0 32 32">
<path d="M27.414 24.586l-5.077-5.077c1.049-1.581 1.663-3.474 1.663-5.509 0-5.514-4.486-10-10-10s-10 4.486-10 10 4.486 10 10 10c2.035 0 3.928-0.614 5.509-1.663l5.077 5.077c0.78 0.781 2.048 0.781 2.828 0 0.781-0.781 0.781-2.047 0-2.828zM7 14c0-3.86 3.14-7 7-7s7 3.14 7 7-3.14 7-7 7-7-3.14-7-7z"></path>
</symbol>
<symbol id="trash_icon" viewBox="0 0 28 32">
<path d="M27 5h-5.149l-2.125-3.547c-0.595-0.901-1.514-1.453-2.564-1.453h-6.325c-1.050 0-2.025 0.552-2.563 1.453l-2.126 3.547h-5.149c-0.555 0-1 0.446-1 1v1c0 0.556 0.445 1 1 1h1v20c0 2.209 1.791 4 4 4h16c2.209 0 4-1.791 4-4v-20h1c0.556 0 1-0.444 1-1v-1c0-0.554-0.444-1-1-1zM10.744 3.18c0.063-0.109 0.188-0.18 0.319-0.18h5.875c0.133 0 0.258 0.070 0.32 0.18l1.092 1.82h-8.7l1.094-1.82zM22 29h-16c-0.552 0-1-0.448-1-1v-20h18v20c0 0.55-0.45 1-1 1zM14 26c0.553 0 1-0.447 1-1v-13c0-0.553-0.447-1-1-1s-1 0.45-1 1v13c0 0.55 0.45 1 1 1zM9 26c0.55 0 1-0.45 1-1v-13c0-0.553-0.447-1-1-1s-1 0.45-1 1v13c0 0.55 0.45 1 1 1zM19 26c0.553 0 1-0.447 1-1v-13c0-0.553-0.447-1-1-1s-1 0.45-1 1v13c0 0.55 0.45 1 1 1z"></path>
</symbol>
<symbol id="clipboard_icon" viewBox="0 0 32 32">
<path d="M29 4h-9c0-2.209-1.791-4-4-4s-4 1.791-4 4h-9c-0.552 0-1 0.448-1 1v26c0 0.552 0.448 1 1 1h26c0.552 0 1-0.448 1-1v-26c0-0.552-0.448-1-1-1zM16 2c1.105 0 2 0.895 2 2s-0.895 2-2 2c-1.105 0-2-0.895-2-2s0.895-2 2-2zM28 30h-24v-24h4v3c0 0.552 0.448 1 1 1h14c0.552 0 1-0.448 1-1v-3h4v24z"></path>
<path d="M14 26.828l-6.414-7.414 1.828-1.828 4.586 3.586 8.586-7.586 1.829 1.828z"></path>
</symbol>
</defs>
</svg>
